<?xml version="1.0" encoding="UTF-8" standalone="no"?>
<!DOCTYPE svg PUBLIC "-//W3C//DTD SVG 1.1//EN" "http://www.w3.org/Graphics/SVG/1.1/DTD/svg11.dtd">
<svg width="48" height="36" xmlns="http://www.w3.org/2000/svg" version="1.1" viewBox="0.00 0.00 48.00 36.00">
<path fill="#f8cf6d" d="
  M 3.65 0.00
  L 44.46 0.00
  Q 47.29 1.12 48.00 3.87
  L 48.00 32.46
  Q 47.02 35.15 44.36 36.00
  L 3.53 36.00
  Q 0.83 35.07 0.00 32.36
  L 0.00 3.77
  Q 0.78 0.94 3.65 0.00
  Z
  M 20.62 22.61
  C 22.58 24.15 24.60 24.61 26.71 22.97
  Q 35.71 16.00 44.58 8.83
  Q 45.01 8.49 45.01 7.93
  L 45.00 4.25
  A 1.25 1.25 0.0 0 0 43.75 3.00
  L 4.13 3.01
  A 1.12 1.11 0.0 0 0 3.01 4.12
  L 3.00 8.15
  A 0.82 0.81 -70.5 0 0 3.31 8.81
  Q 11.97 15.76 20.62 22.61
  Z
  M 28.91 25.14
  C 25.99 27.45 22.03 27.57 19.04 25.20
  Q 11.25 19.02 3.53 12.73
  A 0.33 0.32 19.6 0 0 3.00 12.98
  L 3.00 31.50
  Q 3.00 33.00 4.50 33.00
  L 43.50 33.00
  A 1.50 1.50 0.0 0 0 45.00 31.50
  L 45.00 12.73
  A 0.23 0.23 0.0 0 0 44.62 12.55
  Q 36.74 18.95 28.91 25.14
  Z"
/>
</svg>
