<?xml version="1.0" encoding="UTF-8" standalone="no"?>
<!DOCTYPE svg PUBLIC "-//W3C//DTD SVG 1.1//EN" "http://www.w3.org/Graphics/SVG/1.1/DTD/svg11.dtd">
<svg width="54" height="36" xmlns="http://www.w3.org/2000/svg" version="1.1" viewBox="0.00 0.00 54.00 36.00">
<path fill="#f8cf6d" d="
  M 9.14 0.00
  L 51.74 0.00
  Q 53.85 0.31 54.00 2.12
  L 54.00 34.23
  Q 53.58 35.59 52.16 36.00
  L 3.77 36.00
  Q 0.69 35.18 0.00 32.11
  L 0.00 10.01
  Q 0.42 7.33 0.23 5.99
  C -0.29 2.46 3.02 3.11 5.11 2.87
  Q 5.66 2.80 5.86 2.29
  Q 6.66 0.26 9.14 0.00
  Z
  M 51.0345 3.9967
  A 0.92 0.92 0.0 0 0 50.1161 3.0751
  L 9.8762 3.0049
  A 0.92 0.92 0.0 0 0 8.9546 3.9233
  L 8.9055 32.0233
  A 0.92 0.92 0.0 0 0 9.8239 32.9449
  L 50.0638 33.0151
  A 0.92 0.92 0.0 0 0 50.9854 32.0967
  L 51.0345 3.9967
  Z
  M 6.0711 7.2327
  A 1.40 1.40 0.0 0 0 4.6735 5.8302
  L 4.4135 5.8298
  A 1.40 1.40 0.0 0 0 3.0111 7.2273
  L 2.9689 31.3673
  A 1.40 1.40 0.0 0 0 4.3665 32.7698
  L 4.6265 32.7702
  A 1.40 1.40 0.0 0 0 6.0289 31.3727
  L 6.0711 7.2327
  Z"
/>
<path fill="#f8cf6d" d="
  M 29.9632 22.5944
  A 1.40 1.40 0.0 0 1 28.5656 23.9968
  L 13.4657 24.0232
  A 1.40 1.40 0.0 0 1 12.0632 22.6256
  L 12.0368 7.4856
  A 1.40 1.40 0.0 0 1 13.4344 6.0832
  L 28.5343 6.0568
  A 1.40 1.40 0.0 0 1 29.9368 7.4544
  L 29.9632 22.5944
  Z
  M 26.9627 9.7589
  A 0.78 0.78 0.0 0 0 26.1787 8.9830
  L 15.8388 9.0372
  A 0.78 0.78 0.0 0 0 15.0629 9.8212
  L 15.1173 20.2011
  A 0.78 0.78 0.0 0 0 15.9013 20.9770
  L 26.2412 20.9228
  A 0.78 0.78 0.0 0 0 27.0171 20.1388
  L 26.9627 9.7589
  Z"
/>
<rect fill="#f8cf6d" x="-7.31" y="-1.57" transform="translate(40.54,10.46) rotate(-0.2)" width="14.62" height="3.14" rx="1.34"/>
<rect fill="#f8cf6d" x="33.10" y="15.02" width="14.84" height="2.98" rx="1.45"/>
<rect fill="#f8cf6d" x="-7.41" y="-1.49" transform="translate(40.51,22.52) rotate(-0.2)" width="14.82" height="2.98" rx="1.43"/>
<rect fill="#f8cf6d" x="-8.96" y="-1.52" transform="translate(20.96,28.48) rotate(0.2)" width="17.92" height="3.04" rx="1.46"/>
<rect fill="#f8cf6d" x="-7.51" y="-1.47" transform="translate(40.40,28.49) rotate(0.5)" width="15.02" height="2.94" rx="1.43"/>
</svg>
