<?xml version="1.0" encoding="UTF-8" standalone="no"?>
<!DOCTYPE svg PUBLIC "-//W3C//DTD SVG 1.1//EN" "http://www.w3.org/Graphics/SVG/1.1/DTD/svg11.dtd">
<svg width="21" height="29" xmlns="http://www.w3.org/2000/svg" version="1.1" viewBox="0.00 0.00 21.00 29.00">
<path fill="#f7d261" d="
  M 21.00 3.36
  L 21.00 25.94
  Q 19.80 28.49 17.76 28.49
  Q 10.62 28.50 3.49 28.50
  Q 1.09 28.50 0.00 25.83
  L 0.00 3.05
  C 0.82 1.39 1.85 0.58 3.81 0.54
  C 8.11 0.47 12.45 0.66 16.72 0.47
  Q 19.94 0.34 21.00 3.36
  Z
  M 19.2683 4.0253
  A 1.76 1.76 0.0 0 0 17.5114 2.2622
  L 3.5314 2.2378
  A 1.76 1.76 0.0 0 0 1.7683 3.9947
  L 1.7317 24.9747
  A 1.76 1.76 0.0 0 0 3.4886 26.7378
  L 17.4686 26.7622
  A 1.76 1.76 0.0 0 0 19.2317 25.0053
  L 19.2683 4.0253
  Z"
/>
<rect fill="#f7d261" x="7.11" y="4.00" width="6.80" height="1.74" rx="0.80"/>
<path fill="#f7d261" d="
  M 14.84 12.75
  A 4.34 4.34 0.0 0 1 10.50 17.09
  A 4.34 4.34 0.0 0 1 6.16 12.75
  A 4.34 4.34 0.0 0 1 10.50 8.41
  A 4.34 4.34 0.0 0 1 14.84 12.75
  Z
  M 13.12 12.76
  A 2.63 2.63 0.0 0 0 10.49 10.13
  A 2.63 2.63 0.0 0 0 7.86 12.76
  A 2.63 2.63 0.0 0 0 10.49 15.39
  A 2.63 2.63 0.0 0 0 13.12 12.76
  Z"
/>
<path fill="#f7d261" d="
  M 6.40 20.54
  Q 5.92 21.89 6.08 23.32
  Q 6.14 23.89 5.60 24.05
  L 5.15 24.19
  Q 4.51 24.38 4.47 23.71
  C 4.27 20.72 4.84 17.44 8.77 18.11
  Q 10.37 18.38 11.26 18.27
  C 15.01 17.83 17.52 19.40 16.47 23.65
  Q 16.35 24.15 15.84 24.14
  Q 15.63 24.14 15.43 24.05
  Q 14.94 23.85 14.92 23.32
  L 14.86 21.24
  A 1.59 1.58 82.1 0 0 12.89 19.75
  Q 10.42 20.36 7.97 19.71
  A 1.32 1.31 -72.6 0 0 6.40 20.54
  Z"
/>
</svg>
