<?xml version="1.0" encoding="UTF-8" standalone="no"?>
<!DOCTYPE svg PUBLIC "-//W3C//DTD SVG 1.1//EN" "http://www.w3.org/Graphics/SVG/1.1/DTD/svg11.dtd">
<svg xmlns="http://www.w3.org/2000/svg" version="1.1" viewBox="0.00 0.00 32.00 34.00">
<path fill="#072344" d="
  M 32.00 11.36
  L 32.00 22.77
  L 16.59 33.38
  A 1.03 1.03 0.0 0 1 15.41 33.38
  L 0.00 22.75
  L 0.00 11.30
  L 15.47 0.63
  A 0.92 0.91 44.6 0 1 16.50 0.63
  L 32.00 11.36
  Z
  M 14.51 11.28
  A 0.32 0.32 0.0 0 0 14.65 11.01
  L 14.62 5.23
  A 0.32 0.32 0.0 0 0 14.12 4.97
  L 4.19 11.72
  A 0.32 0.32 0.0 0 0 4.19 12.25
  L 8.45 15.20
  A 0.32 0.32 0.0 0 0 8.81 15.20
  L 14.51 11.28
  Z
  M 17.87 4.98
  A 0.32 0.32 0.0 0 0 17.37 5.24
  L 17.36 11.02
  A 0.32 0.32 0.0 0 0 17.50 11.29
  L 23.13 15.21
  A 0.32 0.32 0.0 0 0 23.49 15.21
  L 27.74 12.24
  A 0.32 0.32 0.0 0 0 27.74 11.71
  L 17.87 4.98
  Z
  M 16.18 13.76
  A 0.31 0.31 0.0 0 0 15.82 13.76
  L 11.51 16.75
  A 0.31 0.31 0.0 0 0 11.51 17.26
  L 15.83 20.25
  A 0.31 0.31 0.0 0 0 16.19 20.25
  L 20.43 17.25
  A 0.31 0.31 0.0 0 0 20.43 16.75
  L 16.18 13.76
  Z
  M 5.93 16.81
  L 3.23 15.00
  Q 2.75 14.68 2.75 15.26
  L 2.75 18.74
  Q 2.75 19.37 3.27 19.01
  L 5.94 17.17
  A 0.22 0.21 44.2 0 0 5.93 16.81
  Z
  M 28.74 19.04
  A 0.32 0.32 0.0 0 0 29.24 18.77
  L 29.25 15.27
  A 0.32 0.32 0.0 0 0 28.75 15.01
  L 26.14 16.75
  A 0.32 0.32 0.0 0 0 26.14 17.28
  L 28.74 19.04
  Z
  M 14.14 29.10
  A 0.31 0.31 0.0 0 0 14.62 28.85
  L 14.65 23.04
  A 0.31 0.31 0.0 0 0 14.51 22.79
  L 8.79 18.85
  A 0.31 0.31 0.0 0 0 8.43 18.85
  L 4.19 21.77
  A 0.31 0.31 0.0 0 0 4.19 22.29
  L 14.14 29.10
  Z
  M 17.49 22.78
  A 0.31 0.31 0.0 0 0 17.36 23.03
  L 17.37 28.84
  A 0.31 0.31 0.0 0 0 17.85 29.10
  L 27.77 22.28
  A 0.31 0.31 0.0 0 0 27.76 21.77
  L 23.49 18.86
  A 0.31 0.31 0.0 0 0 23.14 18.86
  L 17.49 22.78
  Z"
/>
</svg>
