<?xml version="1.0" encoding="UTF-8" standalone="no"?>
<!DOCTYPE svg PUBLIC "-//W3C//DTD SVG 1.1//EN" "http://www.w3.org/Graphics/SVG/1.1/DTD/svg11.dtd">
<svg width="60" height="31" xmlns="http://www.w3.org/2000/svg" version="1.1" viewBox="0.00 0.00 60.00 31.00">
<path fill="#f5d06f" d="
  M 44.96 15.51
  A 14.97 14.97 0.0 0 1 29.99 30.48
  A 14.97 14.97 0.0 0 1 15.02 15.51
  A 14.97 14.97 0.0 0 1 29.99 0.54
  A 14.97 14.97 0.0 0 1 44.96 15.51
  Z
  M 41.99 15.53
  A 12.02 12.02 0.0 0 0 29.97 3.51
  A 12.02 12.02 0.0 0 0 17.95 15.53
  A 12.02 12.02 0.0 0 0 29.97 27.55
  A 12.02 12.02 0.0 0 0 41.99 15.53
  Z"
/>
<path fill="#f5d06f" d="
  M 0.00 16.59
  L 0.00 14.38
  L 11.53 14.07
  Q 12.00 14.06 12.00 14.52
  L 12.00 16.47
  Q 12.00 16.93 11.54 16.92
  L 0.00 16.59
  Z"
/>
<path fill="#f5d06f" d="
  M 60.00 14.40
  L 60.00 16.65
  L 48.44 16.93
  Q 47.99 16.94 47.99 16.49
  L 47.99 14.51
  Q 47.99 14.06 48.44 14.08
  L 60.00 14.40
  Z"
/>
</svg>
